<svg id="Layer_1" data-name="Layer 1" xmlns="http://www.w3.org/2000/svg" viewBox="0 0 974 512"><defs><style>.cls-1{fill:#fff;}</style></defs><path class="cls-1" d="M259,394c-76.09,0-138-61.91-138-138s61.91-138,138-138,138,61.91,138,138S335.09,394,259,394Zm0-264A126,126,0,1,0,385,256,126.14,126.14,0,0,0,259,130Z"/><path class="cls-1" d="M312.84,217.76h0c-2.91-5.06-8.64-8-15.71-8H220.88c-7.06,0-12.79,2.9-15.72,8s-2.54,11.46,1,17.58l47.66,83a6,6,0,0,0,10.4,0l47.67-83C315.38,229.21,315.74,222.8,312.84,217.76Zm-97.28,6c1-1.76,4.06-1.95,5.32-1.95H253v71.09l-36.46-63.53C215.91,228.26,214.55,225.51,215.56,223.75Zm85.9,5.62L265,292.89V221.8h32.13c1.26,0,4.3.19,5.31,1.94S302.09,228.27,301.46,229.37Z"/><path class="cls-1" d="M551.35,314.27V225H517V201.11h98.39V225H581v89.24Z"/><path class="cls-1" d="M621.13,257.61q0-17.66,6.9-30.74a49.07,49.07,0,0,1,19.74-20.3q12.84-7.23,30.34-7.22,17.65,0,30.5,7.22a49.69,49.69,0,0,1,19.82,20.3q7,13.09,7,30.74,0,17.49-7,30.65a50.11,50.11,0,0,1-19.82,20.47q-12.86,7.31-30.5,7.3-17.49,0-30.26-7.3a50.23,50.23,0,0,1-19.74-20.47Q621.14,275.11,621.13,257.61Zm31,0A50.72,50.72,0,0,0,655,275.75a24.23,24.23,0,0,0,8.58,11.55q5.7,4,14.53,4,13.15,0,19.74-8.9t6.58-24.8a50.72,50.72,0,0,0-2.89-18.14A23.37,23.37,0,0,0,692.8,228q-5.87-3.93-14.69-3.94-13.17,0-19.58,8.75T652.11,257.61Z"/><polygon class="cls-1" points="825.55 201.11 825.55 266.44 772.91 201.11 751.08 201.11 751.08 314.27 778.85 314.27 778.85 248.97 831.17 314.27 853 314.27 853 201.11 825.55 201.11"/></svg>