<svg width="36" height="36" viewBox="0 0 36 36" fill="none" xmlns="http://www.w3.org/2000/svg">
<path d="M36 18C36 27.9411 27.9411 36 18 36C8.05887 36 0 27.9411 0 18C0 8.05887 8.05887 0 18 0C27.9411 0 36 8.05887 36 18Z" fill="#0088CC"/>
<path fill-rule="evenodd" clip-rule="evenodd" d="M11.7407 10.5469H24.2593C24.5476 10.5469 24.7973 10.5469 25 10.5563C25.2046 10.5657 25.4371 10.5868 25.6667 10.6601C26.8113 11.0255 27.5069 12.1837 27.2917 13.3658C27.2485 13.6029 27.1578 13.8181 27.0701 14.0031C26.9831 14.1864 26.8658 14.4068 26.7304 14.6613L20.472 26.4194C20.321 26.7032 20.1918 26.9459 20.079 27.136C19.9672 27.3245 19.8288 27.5367 19.642 27.7132C18.7206 28.5841 17.2794 28.5841 16.3579 27.7132C16.1711 27.5367 16.0328 27.3245 15.921 27.136C15.8082 26.9459 15.679 26.7032 15.528 26.4195L9.26964 14.6613C9.13417 14.4069 9.01685 14.1864 8.92991 14.0031C8.84217 13.8181 8.7515 13.6029 8.70833 13.3658C8.49306 12.1837 9.18865 11.0255 10.3333 10.6601C10.5629 10.5868 10.7954 10.5657 11 10.5563C11.2027 10.5469 11.4524 10.5469 11.7407 10.5469ZM10.9265 12.5374C10.7296 12.6032 10.6098 12.8027 10.6442 13.0074C10.6462 13.0134 10.6595 13.0557 10.7088 13.1595C10.7738 13.2966 10.8691 13.4763 11.0179 13.7558L17.0156 25.0242V12.5156H11.7627C11.4461 12.5156 11.2426 12.5159 11.0911 12.5229C10.9763 12.5282 10.9328 12.5363 10.9265 12.5374ZM18.9844 12.5156V25.0242L24.9821 13.7558C25.1309 13.4763 25.2262 13.2966 25.2912 13.1595C25.3405 13.0557 25.3538 13.0134 25.3558 13.0074C25.3902 12.8027 25.2704 12.6032 25.0735 12.5374C25.0672 12.5363 25.0236 12.5282 24.9089 12.5229C24.7574 12.5159 24.5539 12.5156 24.2373 12.5156H18.9844Z" fill="white"/>
</svg>
