<?xml version="1.0" encoding="UTF-8"?>
<svg xmlns="http://www.w3.org/2000/svg" xmlns:xlink="http://www.w3.org/1999/xlink" width="20px" height="20px" viewBox="0 0 20 20" version="1.1">
<g id="surface1">
<path style=" stroke:none;fill-rule:nonzero;fill:rgb(0%,53.333333%,80%);fill-opacity:1;" d="M 1.167969 10 C 1.167969 5.121094 5.121094 1.167969 10 1.167969 C 14.875 1.167969 18.832031 5.121094 18.832031 10 C 18.832031 14.875 14.875 18.832031 10 18.832031 C 5.121094 18.832031 1.167969 14.875 1.167969 10 Z M 10 2.4375 C 5.824219 2.4375 2.4375 5.824219 2.4375 10 C 2.4375 14.175781 5.824219 17.5625 10 17.5625 C 14.175781 17.5625 17.5625 14.175781 17.5625 10 C 17.5625 5.824219 14.175781 2.4375 10 2.4375 Z M 11 14 C 11 14.550781 10.550781 15 10 15 C 9.449219 15 9 14.550781 9 14 C 9 13.449219 9.449219 13 10 13 C 10.550781 13 11 13.449219 11 14 Z M 8.066406 8.332031 C 8.066406 7.429688 8.847656 6.566406 10 6.566406 C 11.152344 6.566406 11.933594 7.429688 11.933594 8.332031 C 11.933594 8.988281 11.574219 9.324219 10.953125 9.699219 C 10.882812 9.742188 10.804688 9.789062 10.71875 9.839844 C 10.472656 9.980469 10.183594 10.148438 9.964844 10.316406 C 9.644531 10.570312 9.265625 10.976562 9.265625 11.601562 C 9.265625 12.003906 9.59375 12.332031 10 12.332031 C 10.402344 12.332031 10.730469 12.007812 10.734375 11.605469 C 10.746094 11.585938 10.78125 11.542969 10.867188 11.476562 C 11.003906 11.371094 11.152344 11.28125 11.355469 11.164062 C 11.457031 11.105469 11.578125 11.035156 11.714844 10.953125 C 12.425781 10.519531 13.398438 9.804688 13.398438 8.332031 C 13.398438 6.570312 11.914062 5.101562 10 5.101562 C 8.085938 5.101562 6.601562 6.570312 6.601562 8.332031 C 6.601562 8.738281 6.929688 9.066406 7.332031 9.066406 C 7.738281 9.066406 8.066406 8.738281 8.066406 8.332031 Z M 8.066406 8.332031 "/>
</g>
</svg>
