<?xml version="1.0" standalone="no"?>
<!DOCTYPE svg PUBLIC "-//W3C//DTD SVG 20010904//EN"
 "http://www.w3.org/TR/2001/REC-SVG-20010904/DTD/svg10.dtd">
<svg version="1.0" xmlns="http://www.w3.org/2000/svg"
 width="512.000000pt" height="512.000000pt" viewBox="0 0 512.000000 512.000000"
 preserveAspectRatio="xMidYMid meet">

<g transform="translate(0.000000,512.000000) scale(0.100000,-0.100000)"
fill="#0088cc" stroke="none">
<path d="M2300 5028 c-27 -9 -207 -183 -796 -772 -805 -805 -784 -782 -784
-870 0 -65 30 -100 423 -493 l392 -393 512 0 513 0 0 363 c0 330 2 366 19 402
30 68 104 115 179 115 60 0 101 -35 457 -391 l361 -359 585 2 586 3 36 28 c21
16 46 46 57 68 20 38 20 55 18 672 l-3 633 -25 37 c-15 22 -46 48 -74 62 l-50
25 -1073 0 -1073 0 0 363 c0 331 -2 365 -19 402 -43 93 -137 134 -241 103z"/>
<path d="M365 2474 c-43 -22 -64 -44 -86 -87 -19 -36 -19 -63 -17 -670 l3
-633 25 -37 c15 -22 46 -48 74 -62 l50 -25 1073 0 1073 0 0 -352 c0 -212 4
-368 10 -390 21 -76 102 -137 181 -138 83 0 100 15 871 787 770 771 778 779
778 863 0 101 -95 190 -200 190 -63 -1 -107 -40 -675 -609 -313 -314 -573
-571 -577 -571 -5 0 -8 135 -8 300 l0 300 -1150 0 -1149 0 -3 508 c-3 477 -4
509 -22 546 -29 57 -95 96 -165 96 -31 0 -69 -7 -86 -16z"/>
</g>
</svg>
