<svg id="Layer_1" data-name="Layer 1" xmlns="http://www.w3.org/2000/svg" viewBox="0 0 1361 512"><defs><style>.cls-1,.cls-2{fill:#fff;}.cls-2{fill-rule:evenodd;}</style></defs><path class="cls-1" d="M974.54,316q-18.36,0-31.69-7.19a50.49,50.49,0,0,1-20.59-20.29Q915,275.38,915,257.81t7.26-30.6A50.63,50.63,0,0,1,942.85,207q13.33-7.19,31.69-7.19a68.33,68.33,0,0,1,21.23,3.12,45.26,45.26,0,0,1,16.12,8.87L1003.11,235a54.62,54.62,0,0,0-13.49-7.43,42,42,0,0,0-14-2.16q-14.37,0-22.11,8.39t-7.74,24.05q0,10.54,3.43,17.81a24,24,0,0,0,10.13,11q6.71,3.75,16.29,3.75a42.23,42.23,0,0,0,14-2.15,55,55,0,0,0,13.49-7.44l8.78,23.17a45.26,45.26,0,0,1-16.12,8.87A68.33,68.33,0,0,1,974.54,316Z"/><path class="cls-1" d="M1061.05,316q-13.56,0-23.46-5.12a36.36,36.36,0,0,1-15.33-14.7q-5.41-9.58-5.42-22.52,0-13.28,5.42-22.7a36.84,36.84,0,0,1,15.33-14.54q9.89-5.1,23.46-5.11,13.41,0,23.31,5.11a36.87,36.87,0,0,1,15.32,14.54q5.43,9.44,5.43,22.7,0,12.93-5.43,22.52a36.39,36.39,0,0,1-15.32,14.7Q1074.46,316,1061.05,316Zm0-21.09a13.71,13.71,0,0,0,11.17-5q4.15-5,4.15-16.21t-4.15-16.22a13.71,13.71,0,0,0-11.17-5,13.88,13.88,0,0,0-11.33,5q-4.15,5-4.15,16.22t4.15,16.21A13.88,13.88,0,0,0,1061.05,294.88Z"/><path class="cls-1" d="M1115.86,221.53V196h29.85v25.56Zm.64,92.68V233h28.41v81.17Z"/><path class="cls-1" d="M1160.64,314.21V255.09q0-5.43-.32-11c-.22-3.72-.54-7.4-1-11h27.45l1.6,14.06h-1.76A27.7,27.7,0,0,1,1198,235.36a33.56,33.56,0,0,1,16.6-4.08q14.21,0,21.31,8.39t7.1,26.12v48.42h-28.41V267.07q0-7.81-2.72-10.94c-1.81-2.08-4.41-3.12-7.82-3.12a14.23,14.23,0,0,0-10.85,4.4q-4.15,4.39-4.15,11.58v45.22Z"/><path class="cls-1" d="M551.35,314.27V225H517V201.11h98.39V225H581v89.24Z"/><path class="cls-1" d="M621.13,257.61q0-17.66,6.9-30.74a49.07,49.07,0,0,1,19.74-20.3q12.84-7.23,30.34-7.22,17.65,0,30.5,7.22a49.69,49.69,0,0,1,19.82,20.3q7,13.09,7,30.74,0,17.49-7,30.65a50.11,50.11,0,0,1-19.82,20.47q-12.86,7.31-30.5,7.3-17.49,0-30.26-7.3a50.23,50.23,0,0,1-19.74-20.47Q621.14,275.11,621.13,257.61Zm31,0A50.72,50.72,0,0,0,655,275.75a24.23,24.23,0,0,0,8.58,11.55q5.7,4,14.53,4,13.15,0,19.74-8.9t6.58-24.8a50.72,50.72,0,0,0-2.89-18.14A23.37,23.37,0,0,0,692.8,228q-5.87-3.93-14.69-3.94-13.17,0-19.58,8.75T652.11,257.61Z"/><polygon class="cls-1" points="825.55 201.11 825.55 266.44 772.91 201.11 751.08 201.11 751.08 314.27 778.85 314.27 778.85 248.97 831.17 314.27 853 314.27 853 201.11 825.55 201.11"/><path class="cls-1" d="M228.66,298.8l-38-45.88,27.43,12.81Z"/><path class="cls-1" d="M256,331.8l-6.82-8.24-18-56.16h49.56l-18,56.16Z"/><path class="cls-1" d="M321.35,252.92l-38,45.88,10.58-33.07Z"/><path class="cls-1" d="M282.21,191.2l27.52,12.34-53.73,8-53.73-8,27.52-12.34Z"/><path class="cls-1" d="M287.89,250l16.24-33.44-37.26,5.54Z"/><path class="cls-1" d="M301.78,248.81l30.74-14.34L316.3,218.93Z"/><path class="cls-1" d="M235,255.4l21-27.83,21,27.83Z"/><path class="cls-1" d="M207.87,216.51,224.11,250l21-27.9Z"/><path class="cls-1" d="M195.7,218.93l-16.22,15.54,30.74,14.34Z"/><path class="cls-2" d="M256,394A138,138,0,1,0,118,256,138,138,0,0,0,256,394ZM226.05,179.73a6,6,0,0,1,2.46-.53h55a6,6,0,0,1,2.46.53l37.45,16.8a5.94,5.94,0,0,1,2.59,2.22L348,233a6,6,0,0,1-.42,7.08l-87,105a6,6,0,0,1-9.24,0l-87-105,0,0,0,0a6,6,0,0,1-.38-7L186,198.75a5.94,5.94,0,0,1,2.59-2.22Z"/></svg>